<svg width="117" height="24" viewBox="0 0 117 24" fill="none" xmlns="http://www.w3.org/2000/svg">
<path d="M23.2485 1.09685C20.4475 -0.653285 16.76 -0.236315 13.4713 1.83026C10.1928 -0.236315 6.50302 -0.653285 3.70544 1.09685C-0.719964 3.86256 -1.258 10.9853 2.50485 17.0068C5.27844 21.4461 9.61588 24.0473 13.477 23.9993C17.3381 24.0473 21.6755 21.4461 24.4491 17.0068C28.2074 10.9853 27.6739 3.86256 23.2485 1.09685ZM4.53934 15.7353C3.76346 14.5053 3.17806 13.165 2.803 11.7599C2.46977 10.5401 2.34237 9.27335 2.42603 8.01169C2.59395 5.78633 3.49982 4.05334 4.97572 3.13143C6.45161 2.20953 8.40272 2.15355 10.4806 2.97835C10.7925 3.10287 11.1009 3.24681 11.4071 3.4056C10.2524 4.45851 9.24833 5.66556 8.42328 6.99269C6.13861 10.6483 5.44179 14.7163 6.23914 17.9596C5.60336 17.2737 5.0342 16.5289 4.53934 15.7353ZM24.1521 11.7587C23.7765 13.1637 23.1912 14.5039 22.4157 15.7342C21.9205 16.5289 21.3513 17.2752 20.7159 17.963C21.4288 15.0556 20.9444 11.4937 19.1966 8.15335C19.1687 8.09834 19.1296 8.04979 19.0817 8.01085C19.0339 7.97192 18.9784 7.94345 18.9189 7.9273C18.8593 7.91115 18.7971 7.90767 18.7361 7.91709C18.6751 7.92652 18.6168 7.94862 18.5649 7.98199L13.116 11.3863C13.0663 11.4173 13.0232 11.4578 12.9892 11.5055C12.9551 11.5532 12.9309 11.6071 12.9177 11.6642C12.9045 11.7213 12.9028 11.7804 12.9125 11.8382C12.9222 11.896 12.9432 11.9513 12.9743 12.0009L13.774 13.2792C13.8049 13.3289 13.8453 13.372 13.8929 13.406C13.9405 13.44 13.9943 13.4643 14.0513 13.4774C14.1083 13.4906 14.1673 13.4924 14.225 13.4827C14.2827 13.473 14.3379 13.452 14.3874 13.4209L17.9195 11.2138C18.0337 11.5565 18.148 11.8992 18.2337 12.2419C18.5668 13.4601 18.6946 14.7253 18.6118 15.9855C18.4438 18.2097 17.538 19.9427 16.0621 20.8658C15.3008 21.3312 14.4285 21.5837 13.5364 21.5969C13.517 21.5969 13.4964 21.5969 13.477 21.5969H13.4233C12.5311 21.584 11.6587 21.3315 10.8976 20.8658C9.42054 19.9427 8.51467 18.2097 8.34675 15.9855C8.2636 14.7239 8.391 13.4572 8.72372 12.2374C9.48929 9.41525 11.0718 6.88236 13.2725 4.95696C14.2215 4.12392 15.3024 3.45449 16.471 2.97607C18.5432 2.15127 20.4978 2.2061 21.9748 3.12915C23.4518 4.05219 24.3566 5.78405 24.5245 8.00941C24.6092 9.27118 24.4834 10.5383 24.1521 11.7587ZM52.2786 9.10038C49.4137 9.10038 47.0982 11.3372 47.0982 14.1828C47.0982 17.0091 49.4137 19.2093 52.2786 19.2093C55.163 19.2093 57.4786 17.0125 57.4786 14.1828C57.4786 11.3383 55.1665 9.10153 52.2786 9.10153V9.10038ZM52.2786 16.5522C50.9581 16.5522 49.9529 15.484 49.9529 14.1634C49.9529 12.8428 50.9581 11.7587 52.2786 11.7587C53.6186 11.7587 54.6239 12.8463 54.6239 14.1669C54.6239 15.4875 53.6186 16.5567 52.2786 16.5567V16.5522ZM63.9385 5.19686H58.6666C58.6096 5.19577 58.553 5.2062 58.5002 5.22753C58.4474 5.24886 58.3994 5.28065 58.3592 5.32098C58.319 5.36131 58.2873 5.40936 58.2662 5.46224C58.245 5.51512 58.2347 5.57173 58.2359 5.62868V18.4816C58.2318 18.5405 58.2399 18.5995 58.2598 18.6551C58.2796 18.7106 58.3108 18.7615 58.3512 18.8044C58.3917 18.8473 58.4406 18.8814 58.4949 18.9045C58.5491 18.9276 58.6076 18.9392 58.6666 18.9386H63.9385C68.1571 18.9386 71.0883 16.1329 71.0883 12.0512C71.0883 7.94429 68.1571 5.19686 63.9385 5.19686ZM64.063 16.2243H61.1786V7.90431H64.063C66.3979 7.90431 68.0075 9.65101 68.0075 12.0454C68.0075 14.3999 66.3979 16.2243 64.063 16.2243ZM81.5818 9.37684H79.5999C79.4902 9.38552 79.3875 9.43438 79.3116 9.51407C79.2357 9.59376 79.1919 9.69866 79.1886 9.80866V10.397C78.7374 9.65101 77.7173 9.10153 76.447 9.10153C73.975 9.10153 71.6595 11.0436 71.6595 14.1451C71.6595 17.2296 73.9545 19.207 76.4276 19.207C77.7025 19.207 78.7431 18.6587 79.1943 17.9127V18.5205C79.1949 18.6295 79.2384 18.7338 79.3154 18.811C79.3923 18.8882 79.4966 18.932 79.6056 18.9329H81.5875C81.642 18.9341 81.6962 18.9243 81.7468 18.904C81.7974 18.8837 81.8434 18.8534 81.8819 18.8149C81.9205 18.7763 81.9508 18.7304 81.9711 18.6798C81.9914 18.6292 82.0012 18.575 81.9999 18.5205V9.80866C82.0016 9.75265 81.992 9.69687 81.9718 9.64462C81.9515 9.59237 81.921 9.54471 81.882 9.50446C81.8431 9.4642 81.7964 9.43217 81.7449 9.41025C81.6933 9.38833 81.6378 9.37697 81.5818 9.37684ZM76.9714 16.5739C75.6588 16.5739 74.673 15.5651 74.673 14.1657C74.673 12.7663 75.6588 11.7587 76.9714 11.7587C78.2839 11.7587 79.2697 12.7652 79.2697 14.1646C79.2697 15.564 78.285 16.5727 76.9714 16.5727V16.5739ZM92.707 5.19686H90.7251C90.6696 5.19519 90.6143 5.20458 90.5625 5.22448C90.5107 5.24439 90.4634 5.27441 90.4233 5.31279C90.3832 5.35118 90.3512 5.39717 90.329 5.44807C90.3069 5.49897 90.2951 5.55376 90.2944 5.60926V10.3581C89.8375 9.65101 88.8025 9.10153 87.5082 9.10153C85.0545 9.10153 82.779 11.0436 82.779 14.1451C82.779 17.2296 85.0739 19.207 87.5471 19.207C88.8219 19.207 89.7838 18.6587 90.3138 17.9127V18.5205C90.3141 18.6296 90.3575 18.7341 90.4345 18.8114C90.5116 18.8886 90.616 18.9323 90.7251 18.9329H92.707C92.7616 18.9343 92.8158 18.9246 92.8665 18.9044C92.9172 18.8841 92.9632 18.8538 93.0018 18.8152C93.0403 18.7767 93.0707 18.7306 93.0909 18.68C93.1111 18.6293 93.1208 18.575 93.1194 18.5205V5.61155C93.1211 5.55681 93.1117 5.50231 93.0916 5.45136C93.0715 5.40042 93.0412 5.35412 93.0026 5.31529C92.964 5.27646 92.9179 5.24593 92.867 5.22557C92.8162 5.2052 92.7618 5.19543 92.707 5.19686ZM88.0966 16.5978C86.7897 16.5978 85.8119 15.5788 85.8119 14.1646C85.8119 12.7503 86.7932 11.7313 88.0966 11.7313C89.4 11.7313 90.3812 12.7503 90.3812 14.1646C90.3812 15.5788 89.4045 16.5978 88.0966 16.5978ZM103.83 5.19686H101.851C101.796 5.19519 101.741 5.20457 101.689 5.22446C101.637 5.24435 101.589 5.27436 101.549 5.31273C101.509 5.3511 101.477 5.39708 101.455 5.44798C101.432 5.49889 101.42 5.55371 101.42 5.60926V10.3581C100.968 9.65101 99.9277 9.10153 98.6335 9.10153C96.1797 9.10153 93.9042 11.0436 93.9042 14.1451C93.9042 17.2296 96.2003 19.207 98.6723 19.207C99.9483 19.207 100.909 18.6587 101.439 17.9127V18.5205C101.44 18.6297 101.483 18.7342 101.56 18.8114C101.638 18.8886 101.742 18.9323 101.851 18.9329H103.83C103.884 18.9343 103.939 18.9246 103.989 18.9044C104.04 18.8841 104.086 18.8538 104.124 18.8152C104.163 18.7766 104.193 18.7305 104.213 18.6799C104.233 18.6292 104.243 18.575 104.241 18.5205V5.61155C104.243 5.55687 104.234 5.50239 104.214 5.45145C104.194 5.40051 104.164 5.35419 104.125 5.31534C104.087 5.2765 104.041 5.24595 103.99 5.22557C103.939 5.2052 103.885 5.19543 103.83 5.19686ZM99.2195 16.5978C97.9115 16.5978 96.9348 15.5788 96.9348 14.1646C96.9348 12.7503 97.9161 11.7313 99.2195 11.7313C100.523 11.7313 101.504 12.7503 101.504 14.1646C101.504 15.5788 100.53 16.5978 99.2229 16.5978H99.2195ZM114.682 10.0451L111.725 20.1884C111.153 21.9933 109.88 23.0729 107.898 23.0729C106.996 23.0729 106.176 22.889 105.533 22.5211C105.158 22.3075 104.848 22.1121 104.848 21.7991C104.848 21.6049 104.911 21.5044 105.025 21.3227L105.612 20.4431C105.778 20.1975 105.9 20.1175 106.078 20.1175C106.219 20.121 106.356 20.1685 106.469 20.2535C106.838 20.4922 107.18 20.6979 107.702 20.6979C108.312 20.6979 108.779 20.5025 109.03 19.776L109.283 18.934H108.086C107.792 18.934 107.629 18.7581 107.556 18.5216L104.909 10.0451C104.811 9.71156 104.901 9.37798 105.391 9.37798H107.476C107.731 9.37798 107.909 9.4648 108.021 9.82923L109.976 16.655L111.803 9.82923C111.862 9.59389 112.019 9.37798 112.333 9.37798H114.311C114.7 9.37684 114.818 9.65101 114.682 10.0451ZM46.3511 13.0622V18.4805C46.352 18.5396 46.341 18.5982 46.3189 18.653C46.2967 18.7077 46.2638 18.7574 46.222 18.7992C46.1802 18.841 46.1305 18.8739 46.0757 18.8961C46.021 18.9183 45.9623 18.9292 45.9033 18.9283H44.2675C44.2084 18.9294 44.1496 18.9186 44.0948 18.8964C44.04 18.8743 43.9902 18.8414 43.9484 18.7996C43.9066 18.7578 43.8737 18.708 43.8515 18.6531C43.8294 18.5983 43.8186 18.5396 43.8197 18.4805V17.0582C42.7813 18.3697 40.9753 19.1956 38.9328 19.1956C35.0968 19.1956 32.0993 16.31 32.0993 12.202C32.0993 7.93287 35.3355 4.99009 39.424 4.99009C42.442 4.99009 44.8546 6.28784 45.9261 8.89818C45.9561 8.96716 45.9728 9.0412 45.9753 9.11638C45.9753 9.23976 45.8941 9.33343 45.6325 9.42368L43.7226 10.1594C43.6073 10.2071 43.4783 10.2092 43.3616 10.1651C43.2593 10.1047 43.1792 10.013 43.1331 9.90348C42.4477 8.60002 41.2277 7.71467 39.3497 7.71467C36.9142 7.71467 35.1699 9.61674 35.1699 12.0831C35.1699 14.4742 36.6549 16.4402 39.4194 16.4402C40.8736 16.4402 42.0331 15.7548 42.5734 15.0019H40.8484C40.7894 15.0029 40.7307 14.9919 40.676 14.9697C40.6213 14.9476 40.5715 14.9146 40.5298 14.8728C40.488 14.8311 40.455 14.7813 40.4329 14.7266C40.4107 14.6718 40.3997 14.6132 40.4007 14.5541V13.0816C40.3997 13.0225 40.4107 12.9639 40.4329 12.9091C40.455 12.8544 40.488 12.8046 40.5298 12.7629C40.5715 12.7211 40.6213 12.6882 40.676 12.666C40.7307 12.6438 40.7894 12.6329 40.8484 12.6338H45.9033C45.9612 12.6308 46.0192 12.6397 46.0736 12.66C46.1279 12.6802 46.1776 12.7113 46.2195 12.7514C46.2615 12.7915 46.2948 12.8398 46.3174 12.8932C46.34 12.9467 46.3515 13.0041 46.3511 13.0622ZM114.736 7.37082V7.23944C114.736 7.23023 114.739 7.22129 114.745 7.21431C114.752 7.20846 114.76 7.20522 114.769 7.20517H115.604C115.608 7.20502 115.613 7.20575 115.617 7.20732C115.621 7.20889 115.625 7.21127 115.628 7.21431C115.634 7.22129 115.637 7.23023 115.637 7.23944V7.37082C115.637 7.37965 115.634 7.38818 115.628 7.39481C115.625 7.39785 115.621 7.40022 115.617 7.40179C115.613 7.40336 115.608 7.40409 115.604 7.40394H115.299V8.2276C115.299 8.2366 115.295 8.24515 115.289 8.25152C115.282 8.25789 115.274 8.26159 115.265 8.26188H115.107C115.103 8.26186 115.098 8.26093 115.095 8.25916C115.091 8.25739 115.087 8.25481 115.084 8.25159C115.081 8.2485 115.078 8.24478 115.077 8.24065C115.075 8.23653 115.074 8.23209 115.074 8.2276V7.40394H114.769C114.764 7.40429 114.76 7.40367 114.756 7.40212C114.752 7.40058 114.748 7.39815 114.745 7.395C114.742 7.39186 114.739 7.38806 114.738 7.38389C114.736 7.37971 114.735 7.37525 114.736 7.37082ZM116.196 7.23487L116.424 7.7638L116.653 7.23487C116.656 7.2255 116.663 7.21749 116.671 7.21202C116.68 7.2071 116.691 7.20474 116.702 7.20517H116.967C116.971 7.20484 116.975 7.20544 116.98 7.20692C116.984 7.20839 116.987 7.21072 116.991 7.21374C116.994 7.21676 116.996 7.22041 116.998 7.22444C116.999 7.22848 117 7.23281 117 7.23716V8.22875C117 8.23308 117 8.23744 116.998 8.24153C116.997 8.24562 116.994 8.24935 116.991 8.25248C116.988 8.25561 116.985 8.25806 116.981 8.25968C116.977 8.2613 116.972 8.26205 116.968 8.26188H116.819C116.815 8.26202 116.811 8.26129 116.806 8.25972C116.802 8.25815 116.799 8.25578 116.795 8.25274C116.792 8.24967 116.79 8.24593 116.788 8.24178C116.787 8.23763 116.786 8.23317 116.786 8.22875V7.48049L116.541 8.02426C116.537 8.03452 116.531 8.04361 116.522 8.05053C116.513 8.05573 116.502 8.05811 116.492 8.05739H116.37C116.36 8.05796 116.35 8.05558 116.341 8.05053C116.332 8.04394 116.326 8.03474 116.323 8.02426L116.078 7.48049V8.22875C116.078 8.23758 116.075 8.24611 116.069 8.25274C116.063 8.25833 116.054 8.26156 116.046 8.26188H115.894C115.89 8.26191 115.886 8.26112 115.882 8.25955C115.879 8.25798 115.875 8.25566 115.872 8.25274C115.869 8.24967 115.867 8.24593 115.865 8.24178C115.864 8.23763 115.863 8.23317 115.863 8.22875V7.23716C115.863 7.23281 115.864 7.22848 115.865 7.22444C115.867 7.22041 115.87 7.21676 115.873 7.21374C115.876 7.21072 115.88 7.20839 115.884 7.20692C115.888 7.20544 115.892 7.20484 115.896 7.20517H116.153C116.164 7.20489 116.174 7.20724 116.183 7.21202C116.189 7.2183 116.194 7.22622 116.196 7.23487Z" fill="white"/>
</svg>
