<svg width="168" height="22" viewBox="0 0 168 22" fill="none" xmlns="http://www.w3.org/2000/svg">
	<path d="M1.46289 4.33398V14H2.59766V9.86426H4.2041C6.21387 9.86426 7.54004 8.87305 7.54004 7.0957C7.54004 5.35254 6.21387 4.33398 4.24512 4.33398H1.46289ZM4.21094 8.8252H2.59766V5.37305H4.21094C5.63281 5.37305 6.37109 6.02246 6.37109 7.11621C6.37109 8.22363 5.66016 8.8252 4.21094 8.8252ZM9.18066 7.16406V14H10.2402V10.6641C10.2402 8.96875 11.2178 8.11426 12.2568 8.11426C12.5234 8.11426 12.7148 8.15527 12.8994 8.2168V7.12988C12.7354 7.08203 12.5303 7.04785 12.2568 7.04785C11.3955 7.04785 10.6436 7.55371 10.2402 8.58594V7.16406H9.18066ZM20.5352 10.582C20.5352 8.59277 19.1748 7.04785 17.1924 7.04785C15.2031 7.04785 13.8428 8.59277 13.8428 10.582C13.8428 12.5713 15.2031 14.1162 17.1924 14.1162C19.1748 14.1162 20.5352 12.5713 20.5352 10.582ZM19.4004 10.582C19.4004 12.0312 18.6143 13.1592 17.1924 13.1592C15.7637 13.1592 14.9775 12.0244 14.9775 10.582C14.9775 9.13281 15.7637 8.00488 17.1924 8.00488C18.6211 8.00488 19.4004 9.13965 19.4004 10.582ZM21.2871 7.16406L24.0762 14H24.9854L27.7744 7.16406H26.5986L24.5342 12.5986L22.4766 7.16406H21.2871ZM29.6543 5.64648C30.0371 5.64648 30.3447 5.33887 30.3447 4.96289C30.3447 4.58691 30.0371 4.27246 29.6543 4.27246C29.2715 4.27246 28.9707 4.58691 28.9707 4.96289C28.9707 5.33887 29.2715 5.64648 29.6543 5.64648ZM29.1143 7.16406V14H30.1943V7.16406H29.1143ZM38.3291 4.33398H37.2422V8.43555C36.8184 7.55371 35.9434 7.04785 34.918 7.04785C33.0654 7.04785 31.9785 8.58594 31.9785 10.582C31.9785 12.585 33.0654 14.1162 34.9248 14.1162C35.9639 14.1162 36.8184 13.6104 37.2422 12.7285V14H38.3291V4.33398ZM35.1777 13.1592C33.8242 13.1592 33.1133 12.0312 33.1133 10.582C33.1133 9.13281 33.8242 8.00488 35.1777 8.00488C36.5381 8.00488 37.3311 9.11914 37.3311 10.5889C37.3311 12.0449 36.5381 13.1592 35.1777 13.1592ZM43.3604 14.1162C44.4814 14.1162 45.2881 13.7607 46.0469 12.9541L45.2949 12.2842C44.7275 12.8994 44.167 13.1387 43.3877 13.1387C42.1709 13.1387 41.3438 12.4004 41.2412 10.8623H46.1836C46.2178 10.6709 46.2383 10.4863 46.2383 10.2607C46.2383 8.58594 45.2607 7.04785 43.251 7.04785C41.3779 7.04785 40.0996 8.49023 40.0996 10.6162C40.0996 12.7354 41.3643 14.1162 43.3604 14.1162ZM43.2305 7.97754C44.4062 7.97754 45.1377 8.79102 45.165 10.0557H41.2549C41.3984 8.68164 42.2119 7.97754 43.2305 7.97754ZM53.8193 4.33398H52.7324V8.43555C52.3086 7.55371 51.4336 7.04785 50.4082 7.04785C48.5557 7.04785 47.4688 8.58594 47.4688 10.582C47.4688 12.585 48.5557 14.1162 50.415 14.1162C51.4541 14.1162 52.3086 13.6104 52.7324 12.7285V14H53.8193V4.33398ZM50.668 13.1592C49.3145 13.1592 48.6035 12.0312 48.6035 10.582C48.6035 9.13281 49.3145 8.00488 50.668 8.00488C52.0283 8.00488 52.8213 9.11914 52.8213 10.5889C52.8213 12.0449 52.0283 13.1592 50.668 13.1592ZM59.6572 14H60.7373V12.7217C61.168 13.6104 62.0361 14.1162 63.0684 14.1162C64.9209 14.1162 66.001 12.5781 66.001 10.582C66.001 8.5791 64.9209 7.04785 63.0547 7.04785C62.0225 7.04785 61.168 7.55371 60.7373 8.43555V4.33398H59.6572V14ZM62.8018 8.00488C64.1621 8.00488 64.8662 9.13281 64.8662 10.582C64.8662 12.0312 64.1621 13.1592 62.8018 13.1592C61.4414 13.1592 60.6484 12.0449 60.6484 10.5752C60.6484 9.11914 61.4414 8.00488 62.8018 8.00488ZM68.2773 16.9258H69.4668L73.2539 7.16406H72.1055L70.0342 12.6055L67.8467 7.16406H66.6162L69.4873 13.9795L68.2773 16.9258Z" fill="#767676"/>
	<path d="M114.209 14.1162C115.686 14.1162 116.827 13.4941 117.442 12.3457L117.531 14H118.44V8.98926H115.016V9.93945H117.367V10.1514C117.367 11.6006 116.376 13.0908 114.284 13.0908C112.076 13.0908 110.989 11.4775 110.989 9.11914C110.989 6.71289 112.172 5.23633 114.318 5.23633C115.781 5.23633 116.759 5.86523 117.271 7.25293L118.311 6.8291C117.593 5.08594 116.267 4.21777 114.318 4.21777C111.44 4.21777 109.813 6.18652 109.813 9.16699C109.813 12.2568 111.495 14.1162 114.209 14.1162ZM126.814 10.582C126.814 8.59277 125.454 7.04785 123.472 7.04785C121.482 7.04785 120.122 8.59277 120.122 10.582C120.122 12.5713 121.482 14.1162 123.472 14.1162C125.454 14.1162 126.814 12.5713 126.814 10.582ZM125.68 10.582C125.68 12.0312 124.894 13.1592 123.472 13.1592C122.043 13.1592 121.257 12.0244 121.257 10.582C121.257 9.13281 122.043 8.00488 123.472 8.00488C124.9 8.00488 125.68 9.13965 125.68 10.582ZM128.852 4.33398V14H131.47C134.696 14 136.494 12.2432 136.494 9.15332C136.494 6.07031 134.751 4.33398 131.511 4.33398H128.852ZM131.483 12.9678H129.986V5.36621H131.49C134.115 5.36621 135.318 6.58301 135.318 9.16699C135.318 11.8125 133.862 12.9678 131.483 12.9678ZM142.646 12.7012L142.722 14H143.624V9.95312C143.624 8.0459 142.646 7.04785 140.917 7.04785C139.707 7.04785 138.825 7.49902 138.135 8.4834L138.969 9.0918C139.413 8.37402 140.042 8.00488 140.869 8.00488C141.983 8.00488 142.599 8.59961 142.599 10.0215H140.76C138.839 10.0215 137.868 10.8076 137.868 12.0791C137.868 13.3438 138.771 14.1162 140.206 14.1162C141.266 14.1162 142.113 13.6309 142.646 12.7012ZM140.418 13.1865C139.481 13.1865 138.976 12.7285 138.976 12.0244C138.976 11.3066 139.522 10.835 140.767 10.835H142.599V11.1426C142.599 12.0586 141.778 13.1865 140.418 13.1865ZM151.649 4.33398H150.562V8.43555C150.139 7.55371 149.264 7.04785 148.238 7.04785C146.386 7.04785 145.299 8.58594 145.299 10.582C145.299 12.585 146.386 14.1162 148.245 14.1162C149.284 14.1162 150.139 13.6104 150.562 12.7285V14H151.649V4.33398ZM148.498 13.1592C147.145 13.1592 146.434 12.0312 146.434 10.582C146.434 9.13281 147.145 8.00488 148.498 8.00488C149.858 8.00488 150.651 9.11914 150.651 10.5889C150.651 12.0449 149.858 13.1592 148.498 13.1592ZM159.784 4.33398H158.697V8.43555C158.273 7.55371 157.398 7.04785 156.373 7.04785C154.521 7.04785 153.434 8.58594 153.434 10.582C153.434 12.585 154.521 14.1162 156.38 14.1162C157.419 14.1162 158.273 13.6104 158.697 12.7285V14H159.784V4.33398ZM156.633 13.1592C155.279 13.1592 154.568 12.0312 154.568 10.582C154.568 9.13281 155.279 8.00488 156.633 8.00488C157.993 8.00488 158.786 9.11914 158.786 10.5889C158.786 12.0449 157.993 13.1592 156.633 13.1592ZM162.73 16.9258H163.92L167.707 7.16406H166.559L164.487 12.6055L162.3 7.16406H161.069L163.94 13.9795L162.73 16.9258Z" fill="#767676"/>
	<path d="M101.702 0.974032C99.2079 -0.578632 95.9243 -0.212045 92.9957 1.62597C90.0763 -0.21103 86.7907 -0.578632 84.2996 0.974032C80.3589 3.4325 79.8798 9.76502 83.2305 15.1166C85.7003 19.0637 89.5626 21.375 93.0008 21.3323C96.439 21.375 100.301 19.0637 102.771 15.1166C106.118 9.76502 105.643 3.4325 101.702 0.974032ZM85.0421 13.9874C84.3511 12.8937 83.8298 11.7019 83.496 10.4525C83.1992 9.36828 83.0857 8.24222 83.1603 7.12072C83.3098 5.14358 84.1165 3.6031 85.4307 2.7826C86.745 1.96209 88.4824 1.91436 90.3327 2.64652C90.6139 2.75944 90.8893 2.88654 91.1576 3.02733C90.1292 3.96267 89.2351 5.03533 88.5007 6.21491C86.4662 9.46444 85.8457 13.0816 86.5558 15.9635C85.9901 15.3537 85.4834 14.6921 85.0421 13.9874ZM102.507 10.4525C102.172 11.7018 101.651 12.8935 100.961 13.9874C100.519 14.6935 100.013 15.3565 99.4469 15.9676C100.082 13.3832 99.6504 10.2179 98.094 7.24867C98.0694 7.19956 98.0347 7.1562 97.9921 7.12139C97.9495 7.08659 97.9001 7.06112 97.8471 7.04665C97.794 7.03219 97.7385 7.02904 97.6841 7.03743C97.6297 7.04582 97.5777 7.06555 97.5315 7.09533L92.6794 10.1225C92.6352 10.1499 92.5968 10.1859 92.5665 10.2282C92.5362 10.2705 92.5146 10.3183 92.5029 10.369C92.4912 10.4196 92.4896 10.4721 92.4982 10.5234C92.5069 10.5747 92.5256 10.6237 92.5533 10.6678L93.2653 11.8041C93.2928 11.8482 93.3288 11.8865 93.3712 11.9168C93.4136 11.947 93.4615 11.9686 93.5122 11.9803C93.563 11.992 93.6156 11.9936 93.6669 11.9849C93.7183 11.9763 93.7674 11.9576 93.8116 11.93L96.9568 9.96913C97.0585 10.2738 97.1602 10.5733 97.2365 10.8831C97.5332 11.9673 97.6467 13.0933 97.5722 14.2148C97.4227 16.193 96.616 17.7335 95.3018 18.554C94.6239 18.9677 93.8472 19.1922 93.0527 19.2039H92.951C92.1565 19.1924 91.3797 18.968 90.7019 18.554C89.3867 17.7335 88.58 16.193 88.4305 14.2148C88.3565 13.0933 88.47 11.9674 88.7662 10.8831C89.4482 8.37489 90.8574 6.12379 92.8167 4.41244C93.6618 3.67164 94.6243 3.07624 95.6649 2.65059C97.5101 1.91843 99.2506 1.96615 100.566 2.78666C101.881 3.60716 102.687 5.14764 102.836 7.12478C102.912 8.24459 102.801 9.36915 102.507 10.4525ZM99.7307 20.3727V20.2315C99.7305 20.2267 99.7313 20.2218 99.7331 20.2173C99.7348 20.2127 99.7375 20.2086 99.7409 20.2051C99.7441 20.2017 99.7481 20.199 99.7525 20.1973C99.7569 20.1955 99.7616 20.1947 99.7663 20.195H100.668C100.672 20.1947 100.677 20.1955 100.681 20.1973C100.686 20.199 100.69 20.2017 100.693 20.2051C100.696 20.2086 100.699 20.2127 100.701 20.2173C100.703 20.2218 100.703 20.2267 100.703 20.2315V20.3727C100.703 20.3776 100.703 20.3824 100.701 20.387C100.699 20.3915 100.696 20.3957 100.693 20.3991C100.69 20.4025 100.686 20.4052 100.681 20.407C100.677 20.4087 100.672 20.4095 100.668 20.4092H100.338V21.2958C100.338 21.3007 100.337 21.3057 100.335 21.3102C100.333 21.3148 100.331 21.3189 100.327 21.3222C100.324 21.3257 100.32 21.3285 100.315 21.3304C100.311 21.3323 100.306 21.3333 100.301 21.3333H100.132C100.122 21.3331 100.113 21.3291 100.106 21.3222C100.1 21.3149 100.096 21.3055 100.096 21.2958V20.4092H99.7663C99.7616 20.4095 99.7569 20.4087 99.7525 20.407C99.7481 20.4052 99.7441 20.4025 99.7409 20.3991C99.7374 20.3957 99.7347 20.3915 99.733 20.387C99.7312 20.3824 99.7305 20.3776 99.7307 20.3727ZM101.305 20.2275L101.557 20.7961L101.809 20.2275C101.813 20.2173 101.82 20.2087 101.829 20.2031C101.839 20.197 101.85 20.1942 101.862 20.195H102.131C102.136 20.1948 102.141 20.1957 102.145 20.1974C102.15 20.1991 102.154 20.2018 102.157 20.2051C102.16 20.2084 102.163 20.2124 102.165 20.2168C102.166 20.2211 102.167 20.2258 102.167 20.2305V21.2978C102.167 21.3071 102.164 21.3161 102.158 21.3232C102.155 21.3264 102.151 21.329 102.147 21.3308C102.142 21.3325 102.138 21.3334 102.133 21.3333H101.972C101.962 21.3334 101.953 21.3297 101.946 21.3232C101.94 21.3163 101.936 21.3072 101.936 21.2978V20.4915L101.673 21.0774C101.669 21.0883 101.662 21.0978 101.652 21.1049C101.642 21.1109 101.63 21.1137 101.619 21.113H101.488C101.477 21.1136 101.466 21.1108 101.456 21.1049C101.447 21.0978 101.44 21.0883 101.436 21.0774L101.172 20.4915V21.2978C101.172 21.3025 101.171 21.3072 101.17 21.3116C101.168 21.3159 101.165 21.3199 101.162 21.3232C101.155 21.3296 101.147 21.3332 101.138 21.3333H100.975C100.97 21.3334 100.966 21.3325 100.962 21.3308C100.957 21.329 100.954 21.3264 100.95 21.3232C100.944 21.3163 100.94 21.3072 100.94 21.2978V20.2305C100.94 20.2257 100.941 20.221 100.943 20.2166C100.945 20.2122 100.948 20.2083 100.951 20.2051C100.954 20.2018 100.958 20.1991 100.962 20.1974C100.967 20.1956 100.971 20.1948 100.976 20.195H101.253C101.265 20.1943 101.276 20.1971 101.286 20.2031C101.295 20.2088 101.302 20.2174 101.305 20.2275Z" fill="#767676"/>
</svg>
