<svg width="24" height="24" viewBox="0 0 24 24" fill="none" xmlns="http://www.w3.org/2000/svg">
<path d="M22.7787 19.6859L13.7178 2.53C13.5535 2.21931 13.3067 1.95909 13.004 1.77754C12.7013 1.59598 12.3543 1.5 12.0005 1.5C11.6467 1.5 11.2997 1.59598 10.997 1.77754C10.6943 1.95909 10.4474 2.21931 10.2832 2.53L1.22134 19.6859C1.06655 19.9789 0.99063 20.3065 1.00092 20.6371C1.01122 20.9677 1.10738 21.2901 1.2801 21.573C1.45283 21.856 1.69627 22.09 1.9869 22.2524C2.27753 22.4148 2.6055 22.5001 2.9391 22.5H21.0609C21.3945 22.5001 21.7225 22.4148 22.0131 22.2524C22.3037 22.09 22.5472 21.856 22.7199 21.573C22.8926 21.2901 22.9888 20.9677 22.9991 20.6371C23.0094 20.3065 22.9335 19.9789 22.7787 19.6859ZM11.0306 8.55906C11.0306 8.30416 11.1327 8.05969 11.3145 7.87945C11.4963 7.69921 11.7429 7.59795 12 7.59795C12.2571 7.59795 12.5037 7.69921 12.6855 7.87945C12.8673 8.05969 12.9694 8.30416 12.9694 8.55906V14.3257C12.9694 14.5806 12.8673 14.8251 12.6855 15.0053C12.5037 15.1856 12.2571 15.2868 12 15.2868C11.7429 15.2868 11.4963 15.1856 11.3145 15.0053C11.1327 14.8251 11.0306 14.5806 11.0306 14.3257V8.55906ZM12.0485 19.6215H12.0213C11.639 19.6203 11.272 19.4725 10.997 19.2092C10.7221 18.9459 10.5604 18.5874 10.5459 18.2086C10.5389 18.0203 10.5699 17.8324 10.6369 17.656C10.704 17.4796 10.8059 17.3183 10.9366 17.1814C11.0672 17.0445 11.2241 16.9348 11.3981 16.8587C11.572 16.7826 11.7595 16.7416 11.9496 16.7381H11.9767C12.3589 16.7386 12.7262 16.8856 13.0015 17.1484C13.2769 17.4112 13.4391 17.7694 13.4541 18.1481C13.4616 18.3369 13.431 18.5253 13.364 18.7022C13.297 18.8791 13.1951 19.0409 13.0641 19.1782C12.9332 19.3154 12.7759 19.4254 12.6014 19.5015C12.427 19.5776 12.239 19.6184 12.0485 19.6215Z" fill="#DB9600"/>
</svg>
